#define icon_width 50
#define icon_height 28
static unsigned char icon_bits[] = {
   0x00, 0x00, 0x00, 0x00, 0x00, 0x00, 0x00, 0x00, 0xc0, 0x01, 0x03, 0x0e,
   0x00, 0x00, 0x00, 0xc0, 0x01, 0x03, 0x0e, 0x00, 0x00, 0x00, 0xc0, 0x01,
   0x03, 0x0e, 0x00, 0x00, 0x00, 0xc0, 0x01, 0x03, 0x0e, 0x00, 0x00, 0x00,
   0xc0, 0x01, 0x03, 0x0e, 0x00, 0x00, 0x00, 0xc0, 0x01, 0x03, 0x0e, 0x00,
   0x00, 0x00, 0xc0, 0x01, 0x03, 0x0e, 0x00, 0x00, 0x00, 0xc0, 0x01, 0x03,
   0x0e, 0x00, 0x00, 0x00, 0xc0, 0x01, 0x03, 0x0e, 0x00, 0x00, 0x00, 0xc0,
   0x01, 0x03, 0x0e, 0x00, 0x00, 0x00, 0xc0, 0x01, 0x03, 0x0e, 0x00, 0x00,
   0x00, 0xc0, 0x01, 0x03, 0x0e, 0x00, 0x00, 0x00, 0xc0, 0x01, 0x03, 0x0e,
   0x00, 0x00, 0x00, 0x80, 0x03, 0x03, 0x07, 0x00, 0x00, 0x00, 0x80, 0x03,
   0x03, 0x07, 0x00, 0x00, 0x00, 0x00, 0x0f, 0xc3, 0x03, 0x00, 0x00, 0x00,
   0x00, 0xfe, 0xff, 0x01, 0x00, 0x00, 0x00, 0x00, 0xfc, 0xff, 0x00, 0x00,
   0x00, 0x00, 0x00, 0xc0, 0x1f, 0x00, 0x00, 0x00, 0x00, 0x00, 0x00, 0x03,
   0x00, 0x00, 0x00, 0x00, 0x00, 0x00, 0x03, 0x00, 0x00, 0x00, 0x00, 0x00,
   0x00, 0x03, 0x00, 0x00, 0x00, 0x00, 0x00, 0x00, 0x03, 0x00, 0x00, 0x00,
   0x00, 0x00, 0x00, 0x03, 0x00, 0x00, 0x00, 0x00, 0x00, 0x00, 0x03, 0x00,
   0x00, 0x00, 0x00, 0x00, 0x00, 0x03, 0x00, 0x00, 0x00, 0x00, 0x00, 0x00,
   0x00, 0x00, 0x00, 0x00 };
